<svg xmlns="http://www.w3.org/2000/svg" width="90" height="90" viewBox="0 0 90 90"><g><g><path fill="#004cff" d="M89.998 1.758v86.484c0 .97-.786 1.758-1.758 1.758H35.178a8.859 8.859 0 0 1-5.822-2.182l-2.09-1.823a5.281 5.281 0 0 1-5.117 4.004H5.274a5.28 5.28 0 0 1-5.273-5.273V56.075A5.279 5.279 0 0 1 5.274 50.8H22.15a5.27 5.27 0 0 1 4.352 2.302l7.47-7.47-8.634-32.229a1.758 1.758 0 0 1 1.243-2.153L43.24 6.786V1.76c0-.97.788-1.758 1.758-1.758L88.24 0a1.756 1.756 0 0 1 1.758 1.758zM23.906 84.727V56.075a1.76 1.76 0 0 0-1.757-1.758h-6.68v20.25a1.758 1.758 0 0 1-3.516 0v-20.25H5.274a1.76 1.76 0 0 0-1.758 1.758v28.652a1.76 1.76 0 0 0 1.758 1.757h16.874a1.76 1.76 0 0 0 1.758-1.757zm13.536-39.723c.136.181.238.39.295.616l1.818 7.113h3.528l-6.852-25.372a1.762 1.762 0 0 1 1.242-2.156 4.738 4.738 0 0 0 3.347-5.797 1.757 1.757 0 0 1 1.243-2.153l1.178-.315v-6.514l-14.055 3.766zm2.593-17.042l3.206 11.871V25.001a8.235 8.235 0 0 1-3.206 2.961zm30.92 56.062a2.463 2.463 0 0 0-2.46-2.461H55.042a1.758 1.758 0 0 1 0-3.516H74.49a2.464 2.464 0 0 0 2.462-2.46 2.464 2.464 0 0 0-2.462-2.462H55.042a1.758 1.758 0 0 1 0-3.515h23.21a2.464 2.464 0 0 0 2.461-2.461 2.464 2.464 0 0 0-2.461-2.461h-23.21a1.758 1.758 0 0 1 0-3.516H72.75a2.464 2.464 0 0 0 2.461-2.46 2.464 2.464 0 0 0-2.46-2.461l-34.56-.003a1.759 1.759 0 0 1-1.704-1.322l-1.392-5.446-7.674 7.674v24.312l4.245 3.702a5.344 5.344 0 0 0 3.512 1.316h33.317a2.463 2.463 0 0 0 2.46-2.46zM86.482 3.515l-39.725.002v49.218h3.434V17.742c0-.97.787-1.758 1.758-1.758a4.739 4.739 0 0 0 4.732-4.733c0-.97.787-1.757 1.758-1.757H74.8c.971 0 1.759.787 1.759 1.757a4.738 4.738 0 0 0 4.733 4.733c.97 0 1.758.788 1.758 1.758v7.034a1.758 1.758 0 0 1-3.516 0v-5.465a8.275 8.275 0 0 1-6.303-6.302H60.008a8.276 8.276 0 0 1-6.302 6.302v33.424h9.61c-3.002-1.287-5.109-4.27-5.109-7.735 0-4.639 3.774-8.413 8.412-8.413 4.64 0 8.412 3.774 8.412 8.413 0 3.466-2.106 6.448-5.107 7.735h2.826a5.983 5.983 0 0 1 5.976 5.976c0 .877-.191 1.71-.533 2.461h.058c.44 0 .869.05 1.282.14V41.309a1.758 1.758 0 0 1 3.516 0v22.279a5.947 5.947 0 0 1 1.179 3.56 5.985 5.985 0 0 1-4.395 5.762 5.94 5.94 0 0 1 .634 2.676 5.983 5.983 0 0 1-5.977 5.976h-.551c.34.751.532 1.584.532 2.46 0 .878-.191 1.71-.532 2.462h12.543zM71.517 45c0-2.7-2.197-4.897-4.897-4.897A4.903 4.903 0 0 0 61.723 45c0 2.7 2.197 4.897 4.897 4.897S71.517 47.7 71.517 45z"/></g></g></svg>