<svg xmlns="http://www.w3.org/2000/svg" width="68" height="42" viewBox="0 0 68 42"><g><g><g><path fill="#f8f8f8" d="M.25.75h67.5v40.5H.25z"/></g><g><g><g><path fill="#ff6c6c" d="M22.462 21.701h-8.417s.141 3.016 3.156 3.016c2.385.07 2.807-1.543 2.807-1.543h2.174s-.21 3.016-4.98 3.016c-5.542 0-5.261-4.77-5.261-4.77-.07-1.052.14-5.19 5.401-5.19 5.822 0 5.19 5.471 5.12 5.471zm-2.174-1.403s0-2.665-3.016-2.665-3.157 2.665-3.157 2.665z"/></g><g><path fill="#ee3b3f" d="M17.272 16.23c5.822 0 5.19 5.471 5.19 5.471h-8.417s.141 3.016 3.156 3.016c2.385.07 2.807-1.543 2.807-1.543h2.174s-.21 3.016-4.98 3.016c-5.542 0-5.261-5.4-5.261-5.4m8.347-.492s0-2.665-3.016-2.665-3.157 2.665-3.157 2.665z"/></g><g><path fill="#1992dd" d="M33.544 21.28c-.07 3.157-2.314 4.91-5.12 4.91-2.805 0-3.787-1.543-3.787-1.543l-.07 1.263h-2.035c.07-.702.07-2.175.07-2.175l-.07-11.152h2.385v5.26S25.9 16.3 28.565 16.3c2.594 0 4.98 1.824 4.98 4.98zm-2.314.07s.07-3.647-3.296-3.577c-3.438.07-3.297 3.507-3.297 3.507s0 3.578 3.297 3.507c3.296-.07 3.296-3.437 3.296-3.437z"/></g><g><path fill="#0468b2" d="M33.474 21.28c-.07 3.157-2.315 4.91-5.12 4.91s-3.787-1.543-3.787-1.543l-.071 1.263h-2.034c.07-.702.07-2.175.07-2.175v-8.978l2.385-2.174v5.26S25.9 16.3 28.565 16.3c2.594 0 4.98 1.824 4.91 4.98zm-2.244.07s.07-3.647-3.296-3.577c-3.438.07-3.297 3.507-3.297 3.507s0 3.578 3.297 3.507c3.296-.07 3.296-3.437 3.296-3.437z"/></g><g><path fill="#ffce00" d="M43.224 25.91h-1.963l-.071-1.333c-.841 1.052-1.964 1.613-3.928 1.613s-4.419-.842-3.998-3.647c.35-2.385 4.208-2.525 5.331-2.525.631 0 2.455-.07 2.455-.07 0-1.333-.35-2.385-2.525-2.455-2.315-.07-2.455 1.332-2.455 1.332h-2.245c.491-2.805 4.84-2.735 4.84-2.735 4.56.21 4.42 2.875 4.49 3.928.07.911 0 2.174 0 3.647 0 1.473.07 2.174.07 2.245zm-2.244-4.42h-2.385s-3.367-.14-3.227 1.684c.14 1.684 2.245 1.684 2.245 1.684 3.857.07 3.437-3.368 3.367-3.368z"/></g><g><path fill="#f7ab1b" d="M38.735 16.23c4.559.21 4.35 2.876 4.42 3.928.07.912 0 2.175 0 3.647 0 1.473.07 2.175.07 2.175H41.26l-.071-1.333c-.841 1.052-1.964 1.613-3.928 1.613s-4.419-.841-3.998-3.647c.35-2.385 4.208-2.525 5.331-2.525.631 0 2.455-.07 2.455-.07 0-1.333-.35-2.385-2.525-2.455-2.315-.07-2.455 1.332-2.455 1.332h-2.034m6.944 2.595h-2.385s-3.367-.14-3.227 1.684c.14 1.684 2.245 1.684 2.245 1.684 3.857.07 3.437-3.368 3.367-3.368z"/></g><g><path fill="#85dd52" d="M42.032 16.79h2.455l3.577 7.155 3.577-7.154h2.244l-6.522 12.625h-2.385l1.893-3.506z"/></g><g><g><path fill="#6bb745" d="M43.013 18.615l1.474-1.824 3.577 7.084 3.577-7.084h2.244l-6.522 12.625h-2.385l1.893-3.577z"/></g><g><path fill="#6bb745" d="M54.658 17.142v-.28h-.071v-.071h.07v-.14h.14v.14h.141v.07h-.14v.28c0 .07 0 .07.07.07h.07v.071h-.14c-.07.07-.14 0-.14-.14z"/></g><g><path fill="#6bb745" d="M55.148 16.79h.14v.071c.07-.07.07-.07.21-.07.071 0 .141 0 .211.07.07-.07.141-.07.21-.07.14 0 .212.07.212.21v.351h-.141v-.28c0-.07-.07-.14-.14-.14a.15.15 0 0 0-.14.14v.28h-.14v-.28c0-.07-.072-.14-.142-.14-.07 0-.14.07-.14.14v.28h-.14v-.561z"/></g></g><g><path fill="#c60c1e" d="M20.078 19.176c.28.561.28 1.122.28 1.122h-6.243s0-1.543 1.403-2.244c-1.403.21-2.595.911-3.507 1.964-.14.56-.14 1.122-.14 1.403 0 0-.28 4.769 5.26 4.769 4.07 0 4.84-2.175 4.981-2.806v-.21h-2.175s-.42 1.613-2.806 1.543c-2.945 0-3.086-3.016-3.086-3.016h7.786c-.35-.702-.982-1.894-1.753-2.525z"/></g><g><path fill="#064c91" d="M32.983 23.525c-.07-1.754-1.051-3.367-2.384-4.35.631.983.56 2.246.56 2.246s.071 3.437-3.295 3.437c-3.297.07-3.297-3.508-3.297-3.508s-.071-2.314 1.753-3.156c-1.613.21-2.946 1.122-3.858 2.385v3.296s0 1.473-.07 2.175h2.034l.07-1.263s.983 1.543 3.788 1.543c2.104-.14 3.928-1.052 4.7-2.805z"/></g><g><g><path fill="#f48d1c" d="M43.154 25.98H41.19l-.07-1.333c-.842 1.052-1.964 1.613-3.928 1.613s-4.419-.841-3.998-3.647c.35-2.385 4.209-2.525 5.331-2.525.631 0 2.455-.07 2.455-.07 0-.632 0-1.123-.35-1.544 1.051.421 1.893 1.193 2.524 2.105v3.086c0 1.473.07 2.174 0 2.315zm-2.174-4.49h-2.385s-3.367-.14-3.227 1.684c.14 1.684 2.245 1.684 2.245 1.684 3.857.07 3.437-3.368 3.367-3.368z"/></g><g><path fill="#f48d1c" d="M35.017 18.895h1.123s.14-.42.49-.771c-.63.14-1.192.771-1.613.771z"/></g></g><g><path fill="#4a9e19" d="M47.363 29.416l4.56-8.837a9.397 9.397 0 0 0-1.404-1.473l-2.455 4.7-2.805-5.402c-.632.28-1.193.702-1.684 1.193l3.296 6.313-1.893 3.506z"/></g></g></g></g></g></svg>