<svg xmlns="http://www.w3.org/2000/svg" width="247" height="129" viewBox="0 0 247 129"><g><g><g><path fill="#004cff" d="M58.893 42.413s-9.613 6.765-9.968 24.39c-.265 13.025 6.375 19.438 9.86 21.898C53.662 43.155 98.4-16.045 141.045 9.735c22.548 13.634 14.31 39.76 1.106 35.36-2.141-.715-3.653-1.573-4.65-2.279L135.125 59.1l9.651-5.962c-.893 3.987-.875 6.894.48 10.762-3.142-1.582-7.418-2.246-10.725-.74l-2.57 17.618c1.26 1.875 2.934 3.86 4.508 4.134 3.083.54 4.547-2.465 6.782-8.475 2.235-6.01 3.236-9.092 5.24-9.863 2.003-.771 5.085-.54 5.085-.54s-3.699 7.551-3.699 13.176 1.052 7.378 1.052 7.378-6.291.636-12.456 1.098c-6.164.463-20.96 3.16-20.96 3.16s.772-1.542 2.93-5.78c.352-.694.705-1.381 1.046-2.044l6.264-42.61c-.12-1.117-.272-2.052-.458-2.497-.667-1.59-3.243-2.322-3.243-2.322s.921-2.288.858-2.417l3.99-.57.02-.128 10.31-1.522-1.478 10.137c12.005-3.12 11.944-20.135.536-27.205-35.085-21.742-78.99 37.532-70.186 81.215.319 1.21.694 2.366 1.115 3.21 1.426 2.85 2.671 4.63 2.671 4.63-17.452 3.947-33.357-15.189-31.655-29.764-3.605 4.87-7.91 11.625-8.713 22.074-.95 12.34 5.83 14.374 5.83 14.374l-2.711.271s-13.78.123-14.247-7.815c-4.24 7.154-16.733 7.001-16.733 7.001s9.39-3.13 10.542-19.767C15.347 72.78 17.123 57.045 3.66 45.832c0 0 8.565 1.483 15.318-2.47 6.754-3.953 6.754-4.612 10.213-5.106 3.46-.495 5.106 2.306 5.106 2.306s-7.742-1.483-8.565 15.813c-.57 11.984-.905 25.154-2.316 34.743 3.818-8.781 10.225-19.185 13.258-25.154C41.012 57.42 40.58 53.039 39.6 51.4c-.983-1.636-2.84-2.292-2.512-3.166.263-.702 16.722-4.66 21.805-5.821zM19.83 67.728l1.264-1.446-1.448-1.264-1.262 1.447zm156.71 19.548c-.859-8.505 3.321-26.243 14.058-25.429-4.391 4.743-7.74 18.768-6.804 25.672 2.489 18.356 24.677 24.41 39.693 9.394-16.244 20.742-44.706 12.526-46.947-9.637zm-7.275-27.283c2.475-4.143 6.61-5.93 12.213-3.732l-4.002 6.791c-4.79-3.243-7.843.646-9.363 4.861-.984 6.225-2.45 12.44 6.488 13.384.18.019.554-.134.553.054l-.002 2.425c-7.926.522-15.024 1.492-22.837 2.852 0 0 1.279-2.505 2.608-6.21.737-2.055 1.71-5.92 2.43-8.953l4.72-31.824c-.134-2.276-.36-4.913-.716-5.76-.668-1.59-3.243-2.322-3.243-2.322s.92-2.289.858-2.416l4.76-.68.002-.015 7.255-1.071.049-.129 20.524-2.395c.195-.023-6.67 13.17-7.24 13.626-.57.456-2.053-.057-3.364-2.737-1.312-2.68-.685-4.96-1.995-6.442-1.312-1.482-2.624-1.596-4.049-.456-.404.323-.916 1.108-1.445 2.067zm76.254-43.703s-2.835 2.184-3.581 5.774c-.745 3.59 0 14.516 0 14.516s-4.773.468-6.563-2.966-2.088-9.209-4.475-11.393c-2.387-2.185-6.562-1.405-6.264 6.086.565 14.186 27.57 36.824 21.118 59.492-4.957 17.42-22.13 24.625-38.42 23.23 13.338-2.4 24.574-9.38 28.169-23.73 5.533-22.082-20.736-39.604-19.667-57.119.354-5.807 2.061-9.014 4.136-10.725 4.202-3.47 12.02-2.278 15.674 1.122 1.374-4.785 9.873-4.287 9.873-4.287zm-44.68 58.553c1.03 1.254 2.19 2.297 3.297 2.49 3.083.54 4.547-2.464 6.781-8.475 2.236-6.01 3.237-9.092 5.24-9.863 2.003-.77 5.086-.54 5.086-.54s-3.698 7.552-3.698 13.177c0 5.624 1.05 7.378 1.05 7.378s-6.291.636-12.455 1.098c-6.165.462-20.959 3.159-20.959 3.159s.771-1.541 2.928-5.779a631.62 631.62 0 0 1 3.072-5.948l5.915-40.233a8.467 8.467 0 0 0-.42-1.78c-.435-1.194-1.208-1.93-1.983-3.088l-.026-1.624c.035.072 1.684-.138 3.44-.383l.007-.051 10.312-1.523-.01.06c2.446-.413 4.862-.83 4.886-.865l.114 1.772s-2.746 0-4.462 2.976c-.489.846-1.065 2.188-1.65 3.741zm12.463-52.79v-.001zM83.441 39.365l4.535-.649.007-.041 10.31-1.523-3.655 25.338c4.367 2.412 8.308 6.282 10.686 11.4l5.702-38.787 10.312-1.522-8.343 57.834-10.45 1.384 1.757-11.958c-.393-2.173-1.026-4.368-2.04-6.096-1.847-3.152-4.924-5.539-8.385-6.984L89.95 94.987l-6.348.841-.007.038-9.617 1.477.322-1.565s3.077-.446 4.23-3.377c.652-1.653 2.19-7.684 3.41-12.635l1.98-13.463c-5.651.732-10.243 4.414-10.076 11.812-2.948-5.583-1.867-10.873-.004-13.637 2.374-3.521 6.496-5.063 11.063-4.861l1.577-10.73c-.137-2.006-.348-4.056-.654-4.785-.667-1.59-3.243-2.321-3.243-2.321s.922-2.29.858-2.416zM22.35 48.096c-1.312 2.447-5.376 3.608-7.983 3.271 2.972 3.468 4.46 7.941 4.973 12.432 0 0 1.767-12.366 3.01-15.703z"/></g><g><path fill="#fff" d="M170.12 105.871c-.252 1.034-.732 1.887-1.436 2.562-.706.676-1.565 1.083-2.583 1.223-.88.122-1.55-.097-2.013-.656-.488-.602-.583-1.456-.287-2.563.045-.188.126-.494.242-.917.072-.25.171-.382.295-.398.125-.017.477-.077 1.06-.18.582-.103.935-.163 1.06-.18.122-.017.148.127.073.431l-.21.863c-.208.845-.07 1.233.414 1.167.384-.053.659-.368.825-.947l.278-.99c.084-.296-.127-.702-.635-1.222-.85-.88-1.315-1.378-1.396-1.491-.479-.637-.645-1.255-.498-1.852l.367-1.497c.262-1.067.737-1.954 1.426-2.662.74-.77 1.659-1.243 2.756-1.417.895-.134 1.537.06 1.923.585.358.495.423 1.206.195 2.132l-.426 1.742c-.043.176-.135.28-.275.31-.368.085-1.044.179-2.026.28-.162.022-.22-.054-.178-.23.054-.268.181-.74.383-1.413.073-.248.086-.486.039-.712-.047-.226-.157-.327-.33-.303-.483.067-.82.488-1.01 1.262l-.225.915c-.09.364.113.834.607 1.413l1.402 1.608c.468.685.629 1.325.482 1.923zm-18.153 5.378c.026.188-.03.298-.17.33l-2.558.351c-.099.014-.153-.057-.162-.215a164.67 164.67 0 0 1-.113-3.657c-.004-.181-.017-.276-.039-.284-.01.001-.049.103-.11.304-.255.846-.571 2.11-.945 3.786-.043.176-.134.273-.27.293l-1.83.251c-.16.023-.214-.077-.159-.3l3.353-13.675c.04-.163.122-.254.245-.271.5-.08 1.169-.172 2.01-.277.12-.006.162.068.125.22-.581 2.133-.915 3.385-.994 3.76-.02.081-.01.12.026.115.041-.017.084-.074.133-.172.367-.761 1.003-2.042 1.913-3.848.09-.174.192-.268.303-.283a20.72 20.72 0 0 0 1.209-.167l.967-.133c.174-.024.24.046.2.21a.416.416 0 0 1-.043.109c-.385.54-1.145 1.684-2.282 3.437-1.16 1.804-1.736 2.736-1.729 2.803.208 1.888.516 4.322.92 7.313zm-17.515 2.703c-.005.068-.069.112-.193.128l-.967.134c-.468.054-.876.103-1.224.151-.11.016-.161-.346-.147-1.085a22.63 22.63 0 0 1 .084-1.44c.008-.08-.05-.11-.175-.095l-.725.101a.254.254 0 0 0-.198.149 85.556 85.556 0 0 1-1.053 2.537c-.077.115-.145.176-.208.185l-2.288.315c-.198.028-.261-.032-.19-.178 1.01-2.457 2.022-4.92 3.034-7.39 1.967-4.748 3.033-7.14 3.197-7.174.678-.126 1.347-.219 2.008-.276.146-.01.035 2.25-.332 6.778a1294.1 1294.1 0 0 1-.623 7.16zm-2.04-4.43c.142-1.31.187-1.963.138-1.956-.062.01-.207.306-.435.893l-.43 1.165c-.02.036.032.054.158.054a1.6 1.6 0 0 0 .36-.04c.129-.03.196-.068.209-.115zm-16.423 6.823c-.034.14-.152.23-.353.269-1.738.319-3.298.523-4.68.611-.132.007-.173-.096-.122-.306l3.37-13.744c.032-.13.116-.204.253-.222.958-.143 2.499-.35 4.627-.62.198-.028.28.03.244.17l-.232.949c-.147.553-.238.904-.275 1.05-.035.147-.122.23-.259.249-.49.067-1.2.164-2.123.292-.183.026-.292.102-.324.232-.015.058-.121.476-.325 1.251a31.508 31.508 0 0 0-.362 1.479c-.032.13.024.195.164.199.251-.001.82-.074 1.713-.22.158-.022.227.037.206.176-.04.21-.143.604-.309 1.182a68.923 68.923 0 0 0-.325 1.184c-.04.164-.129.255-.266.275l-1.673.23c-.125.018-.22.116-.287.292-.182.496-.422 1.42-.717 2.774-.037.15.053.222.272.214l2.046-.282c.197-.026.277.036.24.189-.232.95-.4 1.658-.503 2.127zm-16.273 2.107c0 .249-.097.392-.285.43-.241.056-.965.15-2.17.283-.139.018-.18-.13-.127-.442.133-.79.32-1.67.558-2.645.435-1.772.324-2.612-.333-2.521a.388.388 0 0 0-.224.03c-.096.048-.17.183-.225.405a618.381 618.381 0 0 1-1.21 4.861c-.075.304-.181.472-.321.502-.687.163-1.328.263-1.924.3-.146.009-.178-.151-.098-.48l3.318-13.533c.052-.21.188-.332.416-.363.684-.095 1.622-.229 2.81-.404.774-.107 1.391-.044 1.853.187.501.26.686.667.549 1.23l-.868 3.467c-.14.575-.441 1.09-.902 1.549-.32.327-.648.565-.983.713-.108.05-.167.092-.175.127-.005.023.037.045.127.067.218.038.431.15.637.338.464.397.47 1.524.016 3.375-.29 1.186-.436 2.024-.439 2.524zm-.046-10.366c.189-.774.008-1.106-.546-.996-.13.041-.226.065-.289.074-.111.015-.191.124-.24.323l-.756 3.081c-.08.326-.035.484.136.473a.778.778 0 0 0 .223-.031c.274-.038.49-.193.654-.465.24-.396.514-1.215.818-2.459zm-13.87-.944a70.478 70.478 0 0 1-.46 1.797c-.025.106-.141.184-.345.235-.558.077-1.322.188-2.292.333a.347.347 0 0 0-.283.277l-.76 3.097c-.043.177-.003.255.122.24.269-.027.898-.125 1.887-.296.174-.024.248.04.222.191-.066.462-.254 1.23-.564 2.306-.03.117-.106.183-.23.2-.45.052-1.091.14-1.919.265a.36.36 0 0 0-.276.26c-.126.414-.332 1.23-.618 2.448a925.93 925.93 0 0 1-.661 2.693c-.037.152-.143.247-.317.281-.874.2-1.662.315-2.37.344-.159.01-.22-.06-.181-.213l3.348-13.656c.043-.175.164-.278.363-.305.572-.09 1.472-.214 2.696-.372l2.415-.316c.185-.026.26.038.222.19z"/></g><g><path fill="#fff" d="M71.508 112.319l-1.22 2.896L.467 123.6s70.887-11.585 71.04-11.28zm.914-4.422l-1.22 2.897-69.818 8.384s70.886-11.585 71.038-11.28zm-2.135 9.147l-1.22 2.897-69.817 8.383s70.885-11.585 71.037-11.28z"/></g><g><path fill="#fff" d="M20.338 14.805l-2.736 18.443c-.627 1.56-3.695 1.512-3.615-.528l2.565-17.294c-2.971.004-5.771-1.303-8.006-4.89l3.101-1.93c3.214 5.165 8.935 2.696 13.623-.223a92.41 92.41 0 0 0 3.591-2.384c.234-.16.456-.313 1.09-.743 1.98-1.344 4.033-2.635 6.114-3.602C38.26.634 40.511-.04 42.795-.083c6.09-.116 8.9 3.857 10.172 7.025-1.107.476-2.142 1.257-3.05 2.28-.712-2.277-2.54-5.748-7.066-5.662-1.698.032-3.471.58-5.257 1.409-1.897.881-3.779 2.066-5.6 3.301L30.932 9c-1.153.792-2.439 1.676-3.734 2.483-2.167 1.35-4.515 2.604-6.861 3.322zm41.135-2.183c.927 2.049 1.307 4.725.925 7.542l-.001.002c-.385 2.823-1.47 5.303-2.913 7.032-1.634 1.957-3.753 3.017-5.968 2.715-2.22-.3-3.98-1.892-5.032-4.218-.927-2.049-1.308-4.726-.925-7.543l.008-.057v-.001c.391-2.798 1.472-5.258 2.905-6.975 1.634-1.957 3.753-3.016 5.967-2.716h.001c2.22.303 3.982 1.893 5.033 4.22zm-3.328 1.5c-.539-1.189-1.31-1.984-2.189-2.103h-.002c-.884-.121-1.844.44-2.68 1.444-1.03 1.232-1.811 3.055-2.1 5.174l-.007.057v.001h-.001c-.277 2.101-.01 4.047.646 5.5.538 1.188 1.31 1.984 2.189 2.104.884.121 1.845-.44 2.682-1.444 1.029-1.232 1.81-3.054 2.1-5.172v-.003c.288-2.123.024-4.092-.638-5.558zm-30.033 2.974l-1.621 8.386 5.678-7.714 1.755-2.22 1.295 2.52 2.973 5.789L42.404 9.63c1.191-2.568 4.063-1.06 3.5 1.028L41.633 25.09c-.633 2.139-1.097 6.35-3.72 6.35l-4.642-9.196c-3.906 4.939-5.633 9.362-11.577 10.882l2.818-16.617c1.29-3.32 4.088-1.426 3.6.586z"/></g></g></g></svg>