<svg xmlns="http://www.w3.org/2000/svg" width="82" height="90" viewBox="0 0 82 90"><g><g><path fill="#004cff" d="M81.43 88.242c0 .97-.788 1.758-1.759 1.758H2.328A1.757 1.757 0 0 1 .57 88.242c0-10.851 7.05-21.078 16.766-24.317l8.354-2.785 2.998-5.995a19.043 19.043 0 0 1-3.722-5.399H23.42a5.28 5.28 0 0 1-5.273-5.274v-2.06a5.282 5.282 0 0 1-3.516-4.971V26.367C14.632 11.794 26.423 0 40.999 0c14.54 0 26.367 11.828 26.367 26.367V37.44a5.28 5.28 0 0 1-5.273 5.274h-3.198l-.375 2.242c-.633 3.795-2.509 7.434-5.21 10.185l2.998 5.998 8.356 2.785c9.714 3.24 16.765 13.466 16.765 24.317zM63.85 28.125h-3.566l-.009.302a115.17 115.17 0 0 1-.864 10.772h2.682a1.76 1.76 0 0 0 1.758-1.758zM19.907 39.199h2.683a114.6 114.6 0 0 1-.854-10.5v-.003-.019l-.02-.552h-3.567v9.316c0 .97.788 1.758 1.758 1.758zm3.833 7.031a18.13 18.13 0 0 1-.26-1.273l-.374-2.242h-1.442v1.757c0 .97.789 1.758 1.758 1.758zm15.687-39.2h3.147c9.728 0 17.633 7.871 17.76 17.58h3.45C62.884 12.826 53.009 3.514 41 3.514c-12.062 0-21.894 9.313-22.784 21.094h3.452c.126-9.708 8.031-17.578 17.76-17.578zm-14.17 16.332a15.904 15.904 0 0 1 12.227-5.784c.467 0 .914.185 1.244.515a28.243 28.243 0 0 0 15.88 7.94l2.199.314v-.017c.009-.438.014-.92.014-1.473.004-7.868-6.37-14.31-14.247-14.31h-3.147c-7.382 0-13.433 5.658-14.17 12.815zM32.51 46.23a5.275 5.275 0 0 1 4.973-3.515H41a5.279 5.279 0 0 1 5.274 5.273 5.272 5.272 0 0 1-5.274 5.273h-3.516a5.282 5.282 0 0 1-4.97-3.515h-3.584c2.033 3.406 5.182 5.782 8.616 6.64 2.262.566 4.647.566 6.91 0 5.5-1.375 9.667-6.424 10.598-12.008.324-1.958.45-2.659.612-3.748v-.004c.506-3.388.86-7.072 1.033-10.743l-2.588-.37a31.795 31.795 0 0 1-17.32-8.4 12.372 12.372 0 0 0-9.15 4.902l-2.366 3.155c.223 5.52 1.23 14.133 2.11 17.06zm8.258 17.146l3.106-3.285a17.78 17.78 0 0 1-2.875.237c-1.228 0-2.458-.13-3.663-.384zm-9.834-4.862L28.84 62.7a67.095 67.095 0 0 0 3.936 9.127l5.575-5.897zm12.32 7.349l5.968 5.967a66.886 66.886 0 0 0 3.936-9.129l-2.39-4.783zm-5.77-16.117h3.515a1.758 1.758 0 0 0 0-3.516h-3.516a1.758 1.758 0 0 0 0 3.516zm.35 36.738l-2.163-3.471a70.553 70.553 0 0 1-4.811-7.348l-.01-.018a70.467 70.467 0 0 1-5.004-10.853l-7.4 2.466c-7.799 2.601-13.593 10.516-14.29 19.224zm5.635-5.52a66.828 66.828 0 0 0 3.975-5.94l-6.606-6.606-6.27 6.63a67.098 67.098 0 0 0 3.962 5.917c.03.04.058.082.085.125L41 84.917c2.506-4.019 2.384-3.838 2.47-3.952zm.696 5.52h33.678c-.696-8.708-6.492-16.623-14.292-19.224l-7.398-2.466a70.427 70.427 0 0 1-9.826 18.219z"/></g></g></svg>