<svg xmlns="http://www.w3.org/2000/svg" width="68" height="42" viewBox="0 0 68 42"><g><g><g><path fill="#f8f8f8" d="M.249.75h67.5v40.5H.25z"/></g><g><g><g><path fill="#ffb600" d="M56.13 21c0 7.306-5.902 13.278-13.279 13.278-7.306 0-13.278-5.972-13.278-13.279 0-7.306 5.902-13.278 13.209-13.278 7.446 0 13.348 5.972 13.348 13.278z"/></g><g><path fill="#f7981d" d="M42.851 7.721c7.307 0 13.28 5.972 13.28 13.278 0 7.307-5.903 13.279-13.28 13.279-7.306 0-13.278-5.972-13.278-13.279"/></g><g><path fill="#ff8500" d="M42.851 7.721c7.307 0 13.28 5.972 13.28 13.278 0 7.307-5.903 13.279-13.28 13.279"/></g><g><path fill="#ff5050" d="M25.006 7.721c-7.236.07-13.138 5.972-13.138 13.278 0 7.307 5.902 13.279 13.28 13.279 3.442 0 6.533-1.335 8.921-3.442.493-.422.914-.914 1.336-1.406h-2.74a16.105 16.105 0 0 1-.984-1.335h4.707c.281-.421.562-.913.772-1.405h-6.252a8.403 8.403 0 0 1-.562-1.405h7.307c.421-1.334.702-2.74.702-4.215 0-.984-.14-1.897-.28-2.81h-8.15c.07-.492.21-.914.35-1.406h7.308a8.419 8.419 0 0 0-.562-1.405h-6.183c.21-.491.492-.913.772-1.405h4.707a6.665 6.665 0 0 0-1.053-1.405h-2.6c.422-.492.844-.913 1.335-1.335-2.318-2.178-5.48-3.442-8.922-3.442 0-.141 0-.141-.07-.141z"/></g><g><path fill="#e52836" d="M11.868 21c0 7.306 5.902 13.278 13.28 13.278 3.442 0 6.533-1.335 8.921-3.442.493-.422.914-.914 1.336-1.406h-2.74a16.105 16.105 0 0 1-.984-1.335h4.707c.281-.421.562-.913.772-1.405h-6.252a8.403 8.403 0 0 1-.562-1.405h7.307c.421-1.334.702-2.74.702-4.215 0-.984-.14-1.897-.28-2.81h-8.15c.07-.492.21-.914.35-1.406h7.308a8.419 8.419 0 0 0-.562-1.405h-6.183c.21-.491.492-.913.772-1.405h4.707a6.665 6.665 0 0 0-1.053-1.405h-2.6c.422-.492.844-.913 1.335-1.335-2.318-2.178-5.48-3.442-8.922-3.442h-.07"/></g><g><path fill="#cb2026" d="M25.147 34.278c3.443 0 6.534-1.335 8.922-3.442.493-.422.914-.914 1.336-1.406h-2.74a16.105 16.105 0 0 1-.984-1.335h4.707c.281-.421.562-.913.772-1.405h-6.252a8.403 8.403 0 0 1-.562-1.405h7.307c.421-1.334.702-2.74.702-4.215 0-.984-.14-1.897-.28-2.81h-8.15c.07-.492.21-.914.35-1.406h7.308a8.419 8.419 0 0 0-.562-1.405h-6.183c.21-.491.492-.913.772-1.405h4.707a6.665 6.665 0 0 0-1.053-1.405h-2.6c.422-.492.844-.913 1.335-1.335-2.318-2.178-5.48-3.442-8.922-3.442h-.07"/></g><g><g><path fill="#fff" d="M29.854 24.372l.211-1.195c-.07 0-.21.07-.351.07-.492 0-.563-.28-.492-.42l.422-2.46h.773l.21-1.334h-.703l.141-.844H28.66s-.843 4.637-.843 5.2c0 .842.491 1.194 1.124 1.194.421 0 .773-.14.913-.211z"/></g><g><path fill="#fff" d="M32.876 18.962c1.545 0 2.037 1.124 2.037 2.037 0 .352-.212 1.265-.212 1.265h-2.88s-.28 1.124 1.265 1.124c.703 0 1.476-.351 1.476-.351l-.282 1.335s-.421.21-1.475.21c-1.124 0-2.46-.491-2.46-2.458 0-1.757 1.055-3.303 2.53-3.162zm-.984 2.108h1.545c0-.07.14-.984-.632-.984-.773 0-.913.913-.913.984z"/></g><g><path fill="#fff" d="M41.728 24.372l.28-1.546s-.702.351-1.194.351c-.984 0-1.405-.772-1.405-1.615 0-1.686.844-2.6 1.826-2.6.704 0 1.266.422 1.266.422l.21-1.476s-.843-.35-1.615-.35c-1.616 0-3.232 1.404-3.232 4.074 0 1.757.843 2.95 2.529 2.95.562 0 1.335-.21 1.335-.21z"/></g><g><path fill="#fff" d="M24.023 20.578l-.562 3.864h-1.265l.07-.562c-.07 0-.492.632-1.474.632-.493 0-1.336-.28-1.336-1.545 0-1.616 1.336-2.108 2.53-2.108h.632s.07-.07.07-.351c0-.422-.421-.492-.914-.492-.913 0-1.545.28-1.545.28l.21-1.193s.703-.282 1.687-.282c.492 0 1.897.07 1.897 1.757zm-1.897 1.335c-1.054 0-1.265.492-1.265.843 0 .21.141.562.563.562.843 0 .984-1.124.984-1.335 0 0-.071 0-.282-.07z"/></g><g><path fill="#fff" d="M25.358 24.512c.352 0 2.107.07 2.107-1.826 0-1.757-1.686-1.405-1.686-2.108 0-.351.281-.492.773-.492.211 0 .984.07.984.07l.211-1.264s-.492-.14-1.335-.14c-1.054 0-2.108.42-2.108 1.826 0 1.616 1.756 1.475 1.756 2.108 0 .421-.491.491-.843.491-.632 0-1.264-.21-1.264-.21l-.211 1.264c.07.14.421.281 1.616.281z"/></g><g><path fill="#fff" d="M54.866 17.768l-1.054 6.744h-1.405l.07-.492s-.492.562-1.335.562c-1.194 0-1.757-1.194-1.757-2.318 0-1.827 1.125-3.372 2.39-3.372.773 0 1.334.703 1.334.703l.281-1.898zm-2.88 2.459c-.633 0-1.125.702-1.125 1.826 0 .703.281 1.124.773 1.124.773 0 1.124-.983 1.124-1.756 0-.843-.281-1.194-.773-1.194z"/></g><g><path fill="#fff" d="M14.468 24.442l.843-5.058.141 5.058h.983l1.827-5.058-.772 5.058h1.475l1.123-6.745H17.77l-1.405 4.146-.07-4.146h-2.037l-1.125 6.745z"/></g><g><path fill="#fff" d="M36.248 24.442c.421-2.318.49-4.215 1.475-3.864.14-.913.351-1.264.492-1.616h-.282c-.632 0-1.123.843-1.123.843l.14-.772h-1.335l-.914 5.48h1.547z"/></g><g><path fill="#fff" d="M46.856 20.578l-.562 3.864H45.03l.07-.562c-.07 0-.492.632-1.475.632-.492 0-1.336-.28-1.336-1.545 0-1.616 1.336-2.108 2.53-2.108h.632s.07-.07.07-.351c0-.422-.421-.492-.913-.492-.914 0-1.546.28-1.546.28l.211-1.193s.703-.282 1.686-.282c.492 0 1.967.07 1.897 1.757zm-1.826 1.335c-1.054 0-1.265.492-1.265.843 0 .21.14.562.562.562.844 0 .983-1.124.983-1.335-.07 0-.07 0-.28-.07z"/></g><g><path fill="#fff" d="M48.051 24.442c.422-2.318.491-4.215 1.475-3.864.14-.913.35-1.264.492-1.616h-.281c-.632 0-1.125.843-1.125.843l.141-.772h-1.335l-.913 5.48h1.546z"/></g></g><g><g><path fill="#dce5e5" d="M27.676 23.389c0 .842.492 1.194 1.125 1.194.491 0 .913-.14 1.053-.211l.211-1.195c-.07 0-.21.07-.351.07-.492 0-.563-.28-.492-.42l.422-2.46h.773l.21-1.334h-.703l.141-.844"/></g><g><path fill="#dce5e5" d="M32.876 18.962c1.545 0 2.037 1.124 2.037 2.037 0 .352-.212 1.265-.212 1.265h-2.88s-.28 1.124 1.265 1.124c.703 0 1.476-.351 1.476-.351l-.282 1.335s-.421.21-1.475.21c-1.124 0-1.756-.491-1.756-2.458 0-1.757.35-3.303 1.827-3.162zm-.984 2.108h1.827c0-.07-.141-.984-.914-.984s-.913.913-.913.984z"/></g><g><path fill="#dce5e5" d="M41.728 24.372l.28-1.546s-.702.351-1.194.351c-.984 0-1.405-.772-1.405-1.615 0-1.686.844-2.6 1.826-2.6.704 0 1.266.422 1.266.422l.21-1.476s-.843-.35-1.615-.35c-1.616 0-2.53 1.404-2.53 4.074 0 1.757.14 2.95 1.827 2.95.562 0 1.335-.21 1.335-.21z"/></g><g><path fill="#dce5e5" d="M22.056 18.962c.562 0 1.967.07 1.967 1.686l-.562 3.864h-1.265l.07-.561c-.07 0-.492.632-1.474.632-.493 0-1.336-.282-1.336-1.546 0-1.616 1.336-2.108 2.53-2.108h.632s.07-.07.07-.351c0-.421-.421-.492-.914-.492-.913 0-1.545.281-1.545.281m1.897 1.546c-1.054 0-1.265.492-1.265.843 0 .21.141.562.563.562.843 0 1.686-1.124 1.686-1.335 0 0-.773 0-.984-.07z"/></g><g><path fill="#dce5e5" d="M23.812 24.372s.421.14 1.616.14c.351 0 2.108.07 2.108-1.826 0-1.757-1.687-1.405-1.687-2.108 0-.351.282-.492.773-.492.211 0 .984.07.984.07l.211-1.264s-.491-.14-1.335-.14c-1.054 0-1.405.42-1.405 1.826 0 1.616 1.054 1.475 1.054 2.108 0 .421-.492.491-.843.491"/></g><g><path fill="#dce5e5" d="M54.866 17.768l-1.054 6.744h-1.405l.07-.492s-.492.562-1.335.562c-1.194 0-1.053-1.194-1.053-2.318 0-1.827.421-3.372 1.685-3.372.774 0 1.335.703 1.335.703m-1.124.632c-.632 0-1.124.702-1.124 1.826 0 .703.281 1.124.773 1.124.773 0 1.405-.983 1.405-1.756 0-.843-.562-1.194-1.054-1.194z"/></g><g><path fill="#dce5e5" d="M14.468 24.442l.843-5.058.141 5.058h.983l1.827-5.058-.772 5.058h1.475l1.123-6.745h-1.755l-1.968 4.146-.07-4.146h-.773l-2.39 6.745z"/></g><g><path fill="#dce5e5" d="M34.772 24.442h1.476c.421-2.318.49-4.215 1.475-3.864.14-.913.351-1.264.492-1.616h-.282c-.632 0-1.123.843-1.123.843l.14-.772"/></g><g><path fill="#dce5e5" d="M44.889 18.962c.562 0 1.968.07 1.968 1.686l-.563 3.864H45.03l.07-.561c-.07 0-.492.632-1.475.632-.492 0-1.336-.282-1.336-1.546 0-1.616 1.336-2.108 2.53-2.108h.632s.07-.07.07-.351c0-.421-.421-.492-.913-.492-.914 0-1.546.281-1.546.281m1.897 1.546c-1.054 0-1.265.492-1.265.843 0 .21.141.562.563.562.843 0 1.686-1.124 1.686-1.335 0 0-.703 0-.984-.07z"/></g><g><path fill="#dce5e5" d="M46.575 24.442h1.476c.422-2.318.491-4.215 1.475-3.864.14-.913.35-1.264.492-1.616h-.281c-.632 0-1.125.843-1.125.843l.141-.772"/></g></g></g></g></g></g></svg>