<svg xmlns="http://www.w3.org/2000/svg" width="91" height="66" viewBox="0 0 91 66"><g><g><g><g><g><path fill="#004cff" d="M30.75 56.25c0 4.963-4.036 9-9 9s-9-4.037-9-9 4.036-9 9-9c4.962 0 9 4.037 9 9zm-3 0c0-3.31-2.691-6-6-6-3.31 0-6 2.69-6 6 0 3.309 2.69 6 6 6 3.309 0 6-2.691 6-6z"/></g></g></g><g><g><g><path fill="#004cff" d="M81.75 56.25c0 4.963-4.037 9-9 9-4.964 0-9-4.037-9-9s4.036-9 9-9c4.963 0 9 4.037 9 9zm-3 0c0-3.31-2.691-6-6-6-3.31 0-6 2.69-6 6 0 3.309 2.69 6 6 6 3.309 0 6-2.691 6-6z"/></g></g></g><g><g><g><path fill="#004cff" d="M90.511 38.938l-13.5-21a1.499 1.499 0 0 0-1.262-.688h-16.5a1.5 1.5 0 0 0-1.499 1.5v37.5c0 .83.67 1.5 1.5 1.5h6v-3h-4.5v-34.5H74.93l12.818 19.94v14.56h-7.5v3h9c.83 0 1.5-.67 1.5-1.5v-16.5c0-.287-.081-.57-.238-.812z"/></g></g></g><g><g><g><path fill="#004cff" d="M66.75 36.75v-10.5h12v-3h-13.5a1.5 1.5 0 0 0-1.5 1.5v13.5c0 .829.67 1.5 1.5 1.5h22.5v-3h-21z"/></g></g></g><g><g><g><path fill="#004cff" d="M59.25 6.75h-57a1.5 1.5 0 0 0-1.5 1.5v48c0 .83.672 1.5 1.5 1.5h12v-3H3.748v-45H57.75v45h-28.5v3h30c.83 0 1.5-.67 1.5-1.5v-48a1.5 1.5 0 0 0-1.5-1.5z"/></g></g></g><g><g><g><path fill="#004cff" d="M2.25 48.75h9v3h-9z"/></g></g></g><g><g><g><path fill="#004cff" d="M32.25 48.75h25.5v3h-25.5z"/></g></g></g><g><g><g><path fill="#004cff" d="M83.25 48.75h6v3h-6z"/></g></g></g><g><g><g><path fill="#004cff" d="M6.75 12.75h52.5v3H6.75z"/></g></g></g><g><g><g><path fill="#004cff" d="M20.25 54.75h3v3h-3z"/></g></g></g><g><g><g><path fill="#004cff" d="M71.25 54.75h3v3h-3z"/></g></g></g><g><g><g><path fill="#004cff" d="M6.75.75h21v3h-21z"/></g></g></g><g><g><g><path fill="#004cff" d="M.75.75h2.999v3h-3z"/></g></g></g></g></g></svg>