<svg xmlns="http://www.w3.org/2000/svg" width="28" height="28" viewBox="0 0 28 28"><g><g><path fill="#f8f8f8" d="M27.25 14.25c0 7.451-6.049 13.5-13.5 13.5-7.452 0-13.5-6.049-13.5-13.5C.25 6.798 6.298.75 13.75.75c7.451 0 13.5 6.048 13.5 13.5zm-13.5 10.8c2.51 0 4.819-.864 6.655-2.323-.567-1.214-4.117-2.402-6.656-2.402-2.538 0-6.075 1.188-6.655 2.402a10.654 10.654 0 0 0 6.655 2.323zm10.8-10.8c0-5.954-4.847-10.8-10.8-10.8-5.954 0-10.8 4.846-10.8 10.8 0 2.457.836 4.711 2.214 6.52 1.93-2.349 6.615-3.145 8.585-3.145 1.971 0 6.656.796 8.586 3.145a10.73 10.73 0 0 0 2.215-6.52zm-6.076-3.376A4.712 4.712 0 0 1 13.75 15.6a4.712 4.712 0 0 1-4.724-4.726 4.712 4.712 0 0 1 4.724-4.724 4.712 4.712 0 0 1 4.725 4.724zm-2.7 0c0-1.12-.904-2.024-2.025-2.024-1.12 0-2.025.904-2.025 2.024 0 1.121.905 2.026 2.025 2.026 1.12 0 2.026-.905 2.026-2.026z"/></g></g></svg>