<svg xmlns="http://www.w3.org/2000/svg" width="68" height="42" viewBox="0 0 68 42"><g><g><g><path fill="#f8f8f8" d="M.25.75h67.5v40.5H.25z"/></g><g><g><g><path fill="#3c58bf" d="M28.098 27.358l2.248-12.646h3.513l-2.178 12.646z"/></g><g><path fill="#293688" d="M28.098 27.358l2.88-12.646h2.881l-2.178 12.646z"/></g><g><path fill="#3c58bf" d="M44.397 14.852c-.702-.28-1.827-.562-3.23-.562-3.515 0-6.044 1.757-6.044 4.286 0 1.897 1.757 2.88 3.162 3.513 1.405.632 1.826 1.054 1.826 1.616 0 .843-1.123 1.264-2.107 1.264-1.405 0-2.178-.21-3.372-.702l-.492-.211-.492 2.88c.843.352 2.388.703 4.004.703 3.725 0 6.184-1.756 6.184-4.426 0-1.475-.914-2.6-3.022-3.513-1.264-.632-2.037-.984-2.037-1.616 0-.562.632-1.124 2.037-1.124 1.195 0 2.038.211 2.67.492l.352.14.561-2.74z"/></g><g><path fill="#293688" d="M44.397 14.852c-.702-.28-1.827-.562-3.23-.562-3.515 0-5.411 1.757-5.411 4.286 0 1.897 1.124 2.88 2.529 3.513 1.405.632 1.826 1.054 1.826 1.616 0 .843-1.123 1.264-2.107 1.264-1.405 0-2.178-.21-3.372-.702l-.492-.211-.492 2.88c.843.352 2.388.703 4.004.703 3.725 0 6.184-1.756 6.184-4.426 0-1.475-.914-2.6-3.022-3.513-1.264-.632-2.037-.984-2.037-1.616 0-.562.632-1.124 2.037-1.124 1.195 0 2.038.211 2.67.492l.352.14.561-2.74z"/></g><g><path fill="#3c58bf" d="M53.18 14.712l2.95 12.646h-3.372l-.422-2.108H47.84l-.702 2.108h-3.795l5.27-11.733c.352-.843.984-.913 1.827-.913zm-4.356 8.5h2.95c-.14-.702-.843-3.863-.843-3.863l-.21-1.195c-.211.492-.492 1.265-.492 1.265s-1.195 3.091-1.405 3.724z"/></g><g><path fill="#293688" d="M53.18 14.712l2.95 12.646h-3.372l-.422-2.108H47.84l-.702 2.108h-3.795l6.113-11.733c.351-.843.984-.913 1.827-.913zm-4.356 8.5h2.95c-.14-.702-.843-3.863-.843-3.863l-.21-1.195c-.211.492-.492 1.265-.492 1.265s-1.125 3.02-1.405 3.724z"/></g><g><path fill="#3c58bf" d="M21.634 23.564l-.35-1.827c-.634-2.107-2.67-4.426-4.918-5.55l3.16 11.241h3.794l5.691-12.646h-3.793z"/></g><g><path fill="#293688" d="M21.634 23.564l-.35-1.827c-.634-2.107-2.67-4.426-4.918-5.55l3.16 11.241h3.794l5.691-12.646H25.92z"/></g><g><path fill="#ffbc00" d="M11.87 14.712l.631.14c4.497 1.054 7.588 3.724 8.783 6.886l-1.266-5.972c-.21-.844-.843-1.054-1.616-1.054z"/></g><g><path fill="#f7981d" d="M11.87 14.712c4.496 1.054 8.219 3.794 9.414 6.955l-1.195-4.988a1.716 1.716 0 0 0-1.687-1.335z"/></g><g><path fill="#ed7c00" d="M11.87 14.712c4.496 1.054 8.219 3.794 9.414 6.955l-.844-2.74c-.211-.843-.492-1.686-1.476-2.037z"/></g><g><g><path fill="#051244" d="M25.147 23.143l-2.388-2.39-1.125 2.67-.28-1.756c-.633-2.108-2.67-4.426-4.919-5.55l3.162 11.241h3.794z"/></g><g><path fill="#051244" d="M31.68 27.358l-3.02-3.091-.562 3.091z"/></g><g><path fill="#051244" d="M39.76 23.002c.281.281.422.492.351.773 0 .843-1.123 1.265-2.107 1.265-1.405 0-2.178-.211-3.372-.703l-.492-.21-.492 2.88c.843.351 2.388.702 4.004.702 2.249 0 4.075-.632 5.129-1.756z"/></g><g><path fill="#051244" d="M43.836 27.358h3.302l.702-2.108h4.496l.422 2.108h3.372l-1.194-5.129-4.216-4.075.211 1.124s.703 3.162.843 3.865h-2.95c.28-.703 1.405-3.724 1.405-3.724s.28-.773.491-1.265"/></g></g></g></g></g></g></svg>